<svg width="251" height="29" viewBox="0 0 251 29" fill="none" xmlns="http://www.w3.org/2000/svg">
<path fill-rule="evenodd" clip-rule="evenodd" d="M45.7303 7.0716C46.5726 6.5902 47.6502 6.8749 48.1371 7.7076C50.2034 11.2407 49.2045 14.7868 47.2126 17.3122C45.2758 19.768 42.1994 21.5576 39.3742 21.7939C33.7076 22.2679 29.7381 20.5844 27.1369 18.0986C26.2653 17.2657 25.563 16.3579 25.0068 15.4375C24.4506 16.3579 23.7483 17.2657 22.8767 18.0986C20.2755 20.5844 16.306 22.2679 10.6394 21.7939C7.81417 21.5576 4.73781 19.768 2.801 17.3122C0.809147 14.7868 -0.189842 11.2407 1.87648 7.7076C2.36344 6.8749 3.441 6.5902 4.28328 7.0716C5.12556 7.553 5.41361 8.6182 4.92665 9.4508C3.7732 11.4231 4.20463 13.4275 5.57953 15.1707C7.00946 16.9838 9.2362 18.1812 10.9365 18.3234C15.6837 18.7205 18.6234 17.319 20.428 15.5945C22.2927 13.8126 23.0931 11.5425 23.2556 10.07H26.7581C26.9206 11.5425 27.721 13.8126 29.5856 15.5945C31.3903 17.319 34.3299 18.7205 39.0771 18.3234C40.7774 18.1812 43.0041 16.9838 44.4341 15.1707C45.809 13.4275 46.2404 11.4231 45.087 9.4508C44.6 8.6182 44.888 7.553 45.7303 7.0716Z" fill="#2C2524"/>
<path d="M20.4837 0.982751C15.676 4.74079 21.462 9.917 24.956 12.0354C28.4501 9.917 34.2361 4.74079 29.4284 0.982751C28.5657 0.422021 26.5255 0.146431 25.0853 3.35067C25.0361 3.4601 24.876 3.4601 24.8268 3.35067C23.3866 0.146431 21.3464 0.422021 20.4837 0.982751Z" fill="#2C2524"/>
<path d="M32.7804 20.1307C25.7701 33.309 19.708 25.6217 17.5532 20.1307C19.7633 20.1307 23.6868 15.5484 25.3723 13.2572C26.2958 15.7677 30.6958 18.8856 32.7804 20.1307Z" fill="#F97561"/>
<path fill-rule="evenodd" clip-rule="evenodd" d="M25.7904 10.325L26.6942 12.7821C26.8432 13.1871 27.1717 13.7061 27.6954 14.3117C28.2083 14.9048 28.8527 15.5175 29.5556 16.1122C30.9632 17.3033 32.5195 18.3504 33.5078 18.9407L34.6422 19.6183L34.0253 20.7779C32.2229 24.1662 30.3946 26.3882 28.5271 27.6193C26.5895 28.8966 24.6405 29.0794 22.8635 28.4377C21.1743 27.8278 19.7942 26.5303 18.7324 25.1371C17.6574 23.7267 16.8166 22.0979 16.242 20.6336L15.499 18.7404H17.5533C17.6742 18.7404 18.0417 18.6502 18.6892 18.2227C19.2911 17.8254 19.9703 17.2477 20.6716 16.5636C22.0708 15.1985 23.4238 13.542 24.2349 12.4395L25.7904 10.325ZM19.4697 20.9953C19.8932 21.8525 20.4019 22.7064 20.9791 23.4638C21.879 24.6445 22.8567 25.4748 23.8286 25.8257C24.7128 26.145 25.7284 26.1219 26.9664 25.3057C28.1135 24.5496 29.4529 23.104 30.9134 20.6013C29.9473 19.9621 28.8025 19.1353 27.7264 18.2248C26.9533 17.5707 26.1943 16.8554 25.5573 16.1188C25.4441 15.9879 25.3328 15.8542 25.2246 15.7179C24.4682 16.6344 23.5732 17.6397 22.6475 18.5428C21.881 19.2906 21.0595 20.0018 20.2515 20.5352C20.0084 20.6957 19.7461 20.8541 19.4697 20.9953Z" fill="#2C2524"/>
<path d="M70.9779 1C73.6762 1 76.0433 1.52711 78.0793 2.58133C80.1398 3.63555 81.722 5.14333 82.8258 7.10467C83.9542 9.04149 84.5184 11.297 84.5184 13.8713C84.5184 16.4455 83.9542 18.7011 82.8258 20.6379C81.722 22.5502 80.1398 24.0335 78.0793 25.0877C76.0433 26.1419 73.6762 26.669 70.9779 26.669H62V1H70.9779ZM70.7939 22.2928C73.4922 22.2928 75.5772 21.5573 77.049 20.0863C78.5208 18.6153 79.2567 16.5436 79.2567 13.8713C79.2567 11.199 78.5208 9.11504 77.049 7.61952C75.5772 6.09948 73.4922 5.33946 70.7939 5.33946H67.1513V22.2928H70.7939Z" fill="#2C2524"/>
<path d="M97.4258 27C95.4634 27 93.6973 26.571 92.1274 25.7129C90.5575 24.8303 89.3187 23.5922 88.4111 21.9986C87.5281 20.405 87.0865 18.5662 87.0865 16.4823C87.0865 14.3984 87.5403 12.5596 88.4479 10.9661C89.3801 9.37246 90.6433 8.14663 92.2378 7.28854C93.8322 6.40594 95.6106 5.96464 97.573 5.96464C99.5354 5.96464 101.314 6.40594 102.908 7.28854C104.503 8.14663 105.754 9.37246 106.661 10.9661C107.593 12.5596 108.059 14.3984 108.059 16.4823C108.059 18.5662 107.581 20.405 106.625 21.9986C105.692 23.5922 104.417 24.8303 102.798 25.7129C101.203 26.571 99.4127 27 97.4258 27ZM97.4258 22.5134C98.358 22.5134 99.2288 22.2928 100.038 21.8515C100.872 21.3857 101.535 20.6992 102.025 19.7921C102.516 18.885 102.761 17.7817 102.761 16.4823C102.761 14.5455 102.246 13.0622 101.216 12.0325C100.21 10.9783 98.9712 10.4512 97.4994 10.4512C96.0276 10.4512 94.7889 10.9783 93.7831 12.0325C92.802 13.0622 92.3114 14.5455 92.3114 16.4823C92.3114 18.4191 92.7897 19.9147 93.7464 20.9689C94.7276 21.9986 95.954 22.5134 97.4258 22.5134Z" fill="#2C2524"/>
<path d="M110.514 16.4823C110.514 14.3739 110.943 12.5351 111.801 10.9661C112.66 9.37246 113.85 8.14663 115.37 7.28854C116.891 6.40594 118.633 5.96464 120.595 5.96464C123.122 5.96464 125.207 6.60207 126.85 7.87694C128.518 9.1273 129.635 10.8925 130.199 13.1726H124.643C124.348 12.29 123.845 11.6035 123.134 11.1132C122.447 10.5983 121.589 10.3409 120.558 10.3409C119.087 10.3409 117.922 10.8802 117.063 11.959C116.204 13.0132 115.775 14.521 115.775 16.4823C115.775 18.4191 116.204 19.9269 117.063 21.0057C117.922 22.0599 119.087 22.587 120.558 22.587C122.644 22.587 124.005 21.6553 124.643 19.7921H130.199C129.635 21.9986 128.518 23.7515 126.85 25.0509C125.182 26.3503 123.097 27 120.595 27C118.633 27 116.891 26.571 115.37 25.7129C113.85 24.8303 112.66 23.6044 111.801 22.0354C110.943 20.4418 110.514 18.5908 110.514 16.4823Z" fill="#2C2524"/>
<path d="M139.97 10.5248V20.3805C139.97 21.0669 140.129 21.5695 140.448 21.8883C140.792 22.1825 141.356 22.3296 142.141 22.3296H144.533V26.669H141.295C136.953 26.669 134.782 24.5606 134.782 20.3437V10.5248H132.353V6.29561H134.782V1.25742H139.97V6.29561H144.533V10.5248H139.97Z" fill="#2C2524"/>
<path d="M157.289 27C155.327 27 153.561 26.571 151.991 25.7129C150.421 24.8303 149.182 23.5922 148.274 21.9986C147.391 20.405 146.95 18.5662 146.95 16.4823C146.95 14.3984 147.404 12.5596 148.311 10.9661C149.243 9.37246 150.507 8.14663 152.101 7.28854C153.695 6.40594 155.474 5.96464 157.436 5.96464C159.399 5.96464 161.177 6.40594 162.771 7.28854C164.366 8.14663 165.617 9.37246 166.525 10.9661C167.457 12.5596 167.923 14.3984 167.923 16.4823C167.923 18.5662 167.444 20.405 166.488 21.9986C165.556 23.5922 164.28 24.8303 162.661 25.7129C161.067 26.571 159.276 27 157.289 27ZM157.289 22.5134C158.221 22.5134 159.092 22.2928 159.902 21.8515C160.736 21.3857 161.398 20.6992 161.888 19.7921C162.379 18.885 162.624 17.7817 162.624 16.4823C162.624 14.5455 162.109 13.0622 161.079 12.0325C160.073 10.9783 158.834 10.4512 157.363 10.4512C155.891 10.4512 154.652 10.9783 153.646 12.0325C152.665 13.0622 152.175 14.5455 152.175 16.4823C152.175 18.4191 152.653 19.9147 153.61 20.9689C154.591 21.9986 155.817 22.5134 157.289 22.5134Z" fill="#2C2524"/>
<path d="M176.853 9.45827C177.515 8.37954 178.374 7.53371 179.428 6.92079C180.508 6.30787 181.734 6.00141 183.108 6.00141V11.4074H181.746C180.127 11.4074 178.901 11.7874 178.067 12.5474C177.257 13.3074 176.853 14.6313 176.853 16.5191V26.669H171.701V6.29561H176.853V9.45827Z" fill="#2C2524"/>
<path d="M214.073 8.94342C214.073 10.3164 213.742 11.6035 213.08 12.8048C212.442 14.0061 211.424 14.9745 210.026 15.71C208.652 16.4455 206.911 16.8133 204.801 16.8133H200.496V26.669H195.345V1H204.801C206.788 1 208.481 1.34323 209.879 2.0297C211.277 2.71617 212.319 3.66006 213.006 4.86138C213.718 6.0627 214.073 7.42338 214.073 8.94342ZM204.58 12.6577C206.003 12.6577 207.058 12.339 207.745 11.7016C208.432 11.0396 208.775 10.1202 208.775 8.94342C208.775 6.44271 207.377 5.19236 204.58 5.19236H200.496V12.6577H204.58Z" fill="#2C2524"/>
<path d="M236.68 16.041C236.68 16.7765 236.631 17.4385 236.533 18.0269H221.631C221.754 19.4979 222.269 20.6502 223.176 21.4837C224.084 22.3173 225.2 22.7341 226.525 22.7341C228.438 22.7341 229.799 21.9128 230.609 20.2702H236.165C235.576 22.2315 234.448 23.8496 232.78 25.1245C231.112 26.3748 229.063 27 226.635 27C224.673 27 222.906 26.571 221.337 25.7129C219.791 24.8303 218.577 23.5922 217.694 21.9986C216.835 20.405 216.406 18.5662 216.406 16.4823C216.406 14.3739 216.835 12.5229 217.694 10.9293C218.552 9.33569 219.754 8.10985 221.3 7.25177C222.845 6.39368 224.624 5.96464 226.635 5.96464C228.573 5.96464 230.302 6.38142 231.823 7.21499C233.368 8.04856 234.558 9.23762 235.392 10.7822C236.251 12.3022 236.68 14.0552 236.68 16.041ZM231.345 14.57C231.32 13.2461 230.842 12.1919 229.91 11.4074C228.978 10.5983 227.837 10.1938 226.488 10.1938C225.212 10.1938 224.133 10.586 223.25 11.3706C222.391 12.1306 221.864 13.1971 221.668 14.57H231.345Z" fill="#2C2524"/>
<path d="M246.437 10.5248V20.3805C246.437 21.0669 246.597 21.5695 246.916 21.8883C247.259 22.1825 247.823 22.3296 248.608 22.3296H251V26.669H247.762C243.42 26.669 241.249 24.5606 241.249 20.3437V10.5248H238.821V6.29561H241.249V1.25742H246.437V6.29561H251V10.5248H246.437Z" fill="#2C2524"/>
</svg>
