<svg width="251" height="29" viewBox="0 0 251 29" fill="none" xmlns="http://www.w3.org/2000/svg">
<path fill-rule="evenodd" clip-rule="evenodd" d="M44.9957 6.43635C45.838 5.95495 46.9156 6.23965 47.4025 7.07235C49.4688 10.6054 48.4699 14.1515 46.478 16.6769C44.5412 19.1327 41.4648 20.9223 38.6396 21.1586C32.973 21.6326 29.0035 19.9491 26.4023 17.4633C25.5307 16.6304 24.8284 15.7226 24.2722 14.8022C23.716 15.7226 23.0137 16.6304 22.1421 17.4633C19.5409 19.9491 15.5714 21.6326 9.90478 21.1586C7.07955 20.9223 4.00319 19.1327 2.06638 16.6769C0.0745283 14.1515 -0.924461 10.6054 1.14186 7.07235C1.62882 6.23965 2.70638 5.95495 3.54866 6.43635C4.39094 6.91775 4.67899 7.98295 4.19203 8.81555C3.03858 10.7878 3.47001 12.7922 4.84491 14.5354C6.27484 16.3485 8.50158 17.5459 10.2019 17.6881C14.9491 18.0852 17.8888 16.6837 19.6934 14.9592C21.5581 13.1773 22.3585 10.9072 22.521 9.43475H26.0235C26.186 10.9072 26.9864 13.1773 28.851 14.9592C30.6557 16.6837 33.5953 18.0852 38.3425 17.6881C40.0428 17.5459 42.2695 16.3485 43.6995 14.5354C45.0744 12.7922 45.5058 10.7878 44.3524 8.81555C43.8654 7.98295 44.1534 6.91775 44.9957 6.43635Z" fill="white"/>
<path d="M19.7491 0.347497C14.9414 4.10554 20.7274 9.28175 24.2214 11.4001C27.7155 9.28175 33.5015 4.10554 28.6938 0.347497C27.8311 -0.213233 25.7909 -0.488823 24.3507 2.71542C24.3015 2.82485 24.1414 2.82485 24.0922 2.71542C22.652 -0.488823 20.6118 -0.213233 19.7491 0.347497Z" fill="white"/>
<path d="M32.0458 19.4954C25.0355 32.6737 18.9734 24.9864 16.8186 19.4954C19.0287 19.4954 22.9522 14.9131 24.6377 12.6219C25.5612 15.1324 29.9612 18.2503 32.0458 19.4954Z" fill="#2C2524"/>
<path fill-rule="evenodd" clip-rule="evenodd" d="M25.0558 9.68974L25.9596 12.1468C26.1086 12.5518 26.4371 13.0708 26.9608 13.6764C27.4737 14.2695 28.1181 14.8822 28.821 15.4769C30.2286 16.668 31.7849 17.7151 32.7732 18.3054L33.9076 18.983L33.2907 20.1426C31.4883 23.5309 29.66 25.7529 27.7925 26.984C25.8549 28.2613 23.9059 28.4441 22.1289 27.8024C20.4397 27.1925 19.0596 25.895 17.9978 24.5018C16.9228 23.0914 16.082 21.4626 15.5074 19.9983L14.7644 18.1051H16.8187C16.9396 18.1051 17.3071 18.0149 17.9546 17.5874C18.5565 17.1901 19.2357 16.6124 19.937 15.9283C21.3362 14.5632 22.6892 12.9067 23.5003 11.8042L25.0558 9.68974ZM18.7351 20.36C19.1586 21.2172 19.6673 22.0711 20.2445 22.8285C21.1444 24.0092 22.1221 24.8395 23.094 25.1904C23.9782 25.5097 24.9938 25.4866 26.2318 24.6704C27.3789 23.9143 28.7183 22.4687 30.1788 19.966C29.2127 19.3268 28.0679 18.5 26.9918 17.5895C26.2187 16.9354 25.4597 16.2201 24.8227 15.4835C24.7095 15.3526 24.5982 15.2189 24.49 15.0826C23.7336 15.9991 22.8386 17.0044 21.9129 17.9075C21.1464 18.6553 20.3249 19.3665 19.5169 19.8999C19.2738 20.0604 19.0115 20.2188 18.7351 20.36Z" fill="white"/>
<path d="M70.2433 0.364746C72.9416 0.364746 75.3087 0.891856 77.3447 1.94608C79.4052 3.00029 80.9873 4.50807 82.0912 6.46941C83.2196 8.40623 83.7837 10.6618 83.7837 13.236C83.7837 15.8103 83.2196 18.0658 82.0912 20.0027C80.9873 21.915 79.4052 23.3982 77.3447 24.4524C75.3087 25.5067 72.9416 26.0338 70.2433 26.0338H61.2654V0.364746H70.2433ZM70.0593 21.6575C72.7576 21.6575 74.8426 20.922 76.3144 19.451C77.7862 17.98 78.5221 15.9084 78.5221 13.236C78.5221 10.5637 77.7862 8.47978 76.3144 6.98426C74.8426 5.46423 72.7576 4.70421 70.0593 4.70421H66.4166V21.6575H70.0593Z" fill="white"/>
<path d="M96.6912 26.3647C94.7288 26.3647 92.9627 25.9357 91.3928 25.0776C89.8229 24.195 88.5841 22.9569 87.6765 21.3633C86.7934 19.7697 86.3519 17.931 86.3519 15.8471C86.3519 13.7631 86.8057 11.9244 87.7133 10.3308C88.6454 8.73721 89.9087 7.51138 91.5032 6.65329C93.0976 5.77069 94.876 5.32938 96.8384 5.32938C98.8008 5.32938 100.579 5.77069 102.174 6.65329C103.768 7.51138 105.019 8.73721 105.927 10.3308C106.859 11.9244 107.325 13.7631 107.325 15.8471C107.325 17.931 106.847 19.7697 105.89 21.3633C104.958 22.9569 103.682 24.195 102.063 25.0776C100.469 25.9357 98.6781 26.3647 96.6912 26.3647ZM96.6912 21.8782C97.6233 21.8782 98.4942 21.6575 99.3036 21.2162C100.138 20.7504 100.8 20.0639 101.291 19.1568C101.781 18.2497 102.026 17.1465 102.026 15.8471C102.026 13.9102 101.511 12.427 100.481 11.3973C99.4753 10.3431 98.2366 9.81595 96.7648 9.81595C95.293 9.81595 94.0543 10.3431 93.0485 11.3973C92.0673 12.427 91.5767 13.9102 91.5767 15.8471C91.5767 17.7839 92.0551 19.2794 93.0117 20.3336C93.9929 21.3633 95.2194 21.8782 96.6912 21.8782Z" fill="white"/>
<path d="M109.779 15.8471C109.779 13.7386 110.208 11.8999 111.067 10.3308C111.925 8.73721 113.115 7.51138 114.636 6.65329C116.157 5.77069 117.898 5.32938 119.861 5.32938C122.387 5.32938 124.472 5.96682 126.116 7.24169C127.784 8.49204 128.9 10.2572 129.464 12.5373H123.908C123.614 11.6547 123.111 10.9682 122.399 10.4779C121.713 9.96305 120.854 9.70562 119.824 9.70562C118.352 9.70562 117.187 10.245 116.328 11.3237C115.47 12.3779 115.041 13.8857 115.041 15.8471C115.041 17.7839 115.47 19.2917 116.328 20.3704C117.187 21.4246 118.352 21.9517 119.824 21.9517C121.909 21.9517 123.27 21.0201 123.908 19.1568H129.464C128.9 21.3633 127.784 23.1163 126.116 24.4157C124.448 25.7151 122.363 26.3647 119.861 26.3647C117.898 26.3647 116.157 25.9357 114.636 25.0776C113.115 24.195 111.925 22.9692 111.067 21.4001C110.208 19.8065 109.779 17.9555 109.779 15.8471Z" fill="white"/>
<path d="M139.235 9.8895V19.7452C139.235 20.4317 139.395 20.9343 139.714 21.253C140.057 21.5472 140.621 21.6943 141.406 21.6943H143.798V26.0338H140.56C136.218 26.0338 134.047 23.9253 134.047 19.7085V9.8895H131.619V5.66036H134.047V0.622171H139.235V5.66036H143.798V9.8895H139.235Z" fill="white"/>
<path d="M156.554 26.3647C154.592 26.3647 152.826 25.9357 151.256 25.0776C149.686 24.195 148.447 22.9569 147.54 21.3633C146.657 19.7697 146.215 17.931 146.215 15.8471C146.215 13.7631 146.669 11.9244 147.577 10.3308C148.509 8.73721 149.772 7.51138 151.366 6.65329C152.961 5.77069 154.739 5.32938 156.702 5.32938C158.664 5.32938 160.442 5.77069 162.037 6.65329C163.631 7.51138 164.882 8.73721 165.79 10.3308C166.722 11.9244 167.188 13.7631 167.188 15.8471C167.188 17.931 166.71 19.7697 165.753 21.3633C164.821 22.9569 163.545 24.195 161.926 25.0776C160.332 25.9357 158.541 26.3647 156.554 26.3647ZM156.554 21.8782C157.487 21.8782 158.357 21.6575 159.167 21.2162C160.001 20.7504 160.663 20.0639 161.154 19.1568C161.644 18.2497 161.89 17.1465 161.89 15.8471C161.89 13.9102 161.375 12.427 160.344 11.3973C159.339 10.3431 158.1 9.81595 156.628 9.81595C155.156 9.81595 153.918 10.3431 152.912 11.3973C151.931 12.427 151.44 13.9102 151.44 15.8471C151.44 17.7839 151.918 19.2794 152.875 20.3336C153.856 21.3633 155.083 21.8782 156.554 21.8782Z" fill="white"/>
<path d="M176.118 8.82302C176.78 7.74428 177.639 6.89846 178.694 6.28554C179.773 5.67262 180.999 5.36616 182.373 5.36616V10.7721H181.012C179.393 10.7721 178.166 11.1521 177.332 11.9121C176.523 12.6721 176.118 13.9961 176.118 15.8838V26.0338H170.967V5.66036H176.118V8.82302Z" fill="white"/>
<path d="M213.339 8.30817C213.339 9.6811 213.008 10.9682 212.345 12.1696C211.708 13.3709 210.69 14.3393 209.291 15.0748C207.918 15.8103 206.176 16.178 204.066 16.178H199.762V26.0338H194.61V0.364746H204.066C206.053 0.364746 207.746 0.707981 209.144 1.39445C210.542 2.08092 211.585 3.02481 212.272 4.22613C212.983 5.42745 213.339 6.78813 213.339 8.30817ZM203.846 12.0225C205.268 12.0225 206.323 11.7037 207.01 11.0663C207.697 10.4043 208.04 9.48497 208.04 8.30817C208.04 5.80746 206.642 4.55711 203.846 4.55711H199.762V12.0225H203.846Z" fill="white"/>
<path d="M235.945 15.4058C235.945 16.1413 235.896 16.8032 235.798 17.3916H220.896C221.019 18.8626 221.534 20.0149 222.442 20.8485C223.349 21.682 224.465 22.0988 225.79 22.0988C227.703 22.0988 229.065 21.2775 229.874 19.6349H235.43C234.842 21.5962 233.713 23.2143 232.045 24.4892C230.377 25.7396 228.329 26.3647 225.9 26.3647C223.938 26.3647 222.172 25.9357 220.602 25.0776C219.057 24.195 217.842 22.9569 216.959 21.3633C216.101 19.7697 215.671 17.931 215.671 15.8471C215.671 13.7386 216.101 11.8876 216.959 10.294C217.818 8.70044 219.02 7.4746 220.565 6.61651C222.111 5.75843 223.889 5.32938 225.9 5.32938C227.838 5.32938 229.568 5.74617 231.088 6.57974C232.634 7.41331 233.824 8.60237 234.658 10.1469C235.516 11.667 235.945 13.4199 235.945 15.4058ZM230.61 13.9348C230.586 12.6109 230.107 11.5566 229.175 10.7721C228.243 9.96305 227.102 9.55852 225.753 9.55852C224.478 9.55852 223.398 9.95079 222.515 10.7353C221.657 11.4953 221.129 12.5618 220.933 13.9348H230.61Z" fill="white"/>
<path d="M245.703 9.8895V19.7452C245.703 20.4317 245.862 20.9343 246.181 21.253C246.525 21.5472 247.089 21.6943 247.874 21.6943H250.265V26.0338H247.027C242.686 26.0338 240.515 23.9253 240.515 19.7085V9.8895H238.086V5.66036H240.515V0.622171H245.703V5.66036H250.265V9.8895H245.703Z" fill="white"/>
</svg>
