<svg width="122" height="126" viewBox="0 0 122 126" fill="none" xmlns="http://www.w3.org/2000/svg">
<path opacity="0.3" fill-rule="evenodd" clip-rule="evenodd" d="M59.3329 0.00193112C85.3807 -0.192493 110.175 14.3024 118.576 39.6752C127.337 66.1327 118.584 95.8549 96.4207 112.013C74.9999 127.631 46.4031 123.755 25.3097 107.673C4.86291 92.0835 -5.19238 65.4433 2.67679 40.5403C10.5407 15.6539 33.9032 0.191741 59.3329 0.00193112Z" fill="#FFCA0F"/>
<path d="M80.6414 60.0067L58.1143 37.4796L60.351 35.2428C63.4664 32.1274 68.4991 32.1274 71.6146 35.2428L82.8781 46.5064C85.9936 49.6219 85.9936 54.6545 82.8781 57.77L80.6414 60.0067Z" fill="#F9BAB0"/>
<path d="M106.603 88.2056V115.366C106.603 119.76 103.009 123.354 98.6152 123.354H37.025C30.7941 123.354 25.0425 119.68 22.4863 114.008L10.7434 88.2056H106.603Z" fill="white"/>
<path d="M48.9278 77.1164C47.5697 77.1164 46.5312 76.0779 46.5312 74.7199V73.1222C46.5312 72.0837 46.5313 71.0452 46.6111 70.0068C46.691 68.6487 47.8094 67.6901 49.1674 67.77C50.5254 67.8499 51.484 68.9683 51.4041 70.3263C51.3243 71.2849 51.3243 72.2435 51.3243 73.1222V74.7199C51.3243 76.0779 50.2858 77.1164 48.9278 77.1164Z" fill="#2C2524"/>
<path d="M95.34 25.0977C91.6653 25.0977 88.2303 26.5356 85.6741 29.0918L77.2863 37.4796L73.372 33.5653C69.298 29.4114 62.6677 29.4114 58.6735 33.4854L56.4367 35.7221C55.4781 36.6807 55.4781 38.1985 56.4367 39.0773L59.3126 41.9531C54.6793 47.0656 51.0846 53.2166 49.0076 59.8469C48.6082 61.1251 49.3271 62.4831 50.5254 62.8825C50.765 62.9624 51.0047 62.9624 51.2443 62.9624C52.2828 62.9624 53.1615 62.3233 53.5609 61.2848C55.4781 55.3735 58.5936 49.8615 62.7475 45.3082L66.1825 48.7431C59.7919 56.0125 56.1971 65.5187 56.277 75.2644C56.277 76.5426 57.3954 77.6609 58.6735 77.6609C60.0315 77.6609 61.07 76.5426 61.07 75.2644C60.9901 66.7968 64.0257 58.5688 69.6175 52.1781L73.0525 55.6131C68.4193 61.0452 65.863 68.0749 65.9429 75.1846V76.7822C65.9429 78.1402 66.9814 79.1787 68.3394 79.1787C69.6974 79.1787 70.7359 78.1402 70.7359 76.7822V75.1846C70.656 69.2732 72.733 63.5216 76.4875 58.9682L79.2035 61.6843C79.6828 62.1636 80.3219 62.4032 80.8811 62.4032C81.4403 62.4032 82.0793 62.1636 82.5586 61.6843L84.7954 59.4475C88.8694 55.3735 88.8694 48.823 84.7954 44.749L80.8811 40.8347L89.0292 32.5268C90.7067 30.8493 92.9435 29.8907 95.34 29.8907C100.213 29.8907 104.207 33.8848 104.207 38.7577V115.366C104.207 118.481 101.731 120.958 98.6152 120.958H37.0251C31.7528 120.958 26.8799 117.842 24.6432 112.969L14.498 90.602H91.4257C92.7837 90.602 93.8222 89.5636 93.8222 88.2055C93.8222 86.8475 92.7837 85.809 91.4257 85.809H10.7434C9.9446 85.809 9.14577 86.2085 8.74635 86.9274C8.26705 87.6464 8.26705 88.4452 8.58659 89.244L20.3294 115.046C23.2851 121.597 29.8356 125.831 37.0251 125.831H98.6152C104.367 125.831 109 121.197 109 115.446V38.7577C109 31.2487 102.849 25.0977 95.34 25.0977ZM81.2006 56.0924L80.6414 56.6516L61.4694 37.4796L62.0286 36.9204C64.1854 34.7635 67.7802 34.7635 69.937 36.9204L81.2006 48.184C83.4373 50.3408 83.4373 53.9356 81.2006 56.0924Z" fill="#2C2524"/>
</svg>
