<svg width="118" height="127" viewBox="0 0 118 127" fill="none" xmlns="http://www.w3.org/2000/svg">
<path opacity="0.3" fill-rule="evenodd" clip-rule="evenodd" d="M57.2533 0.00186345C82.3883 -0.185747 106.314 13.8011 114.42 38.2846C122.874 63.8148 114.428 92.4953 93.0414 108.088C72.3712 123.157 44.7768 119.418 24.4226 103.899C4.69248 88.8562 -5.01039 63.1496 2.58298 39.1194C10.1713 15.1053 32.715 0.185021 57.2533 0.00186345Z" fill="#FFCA0F"/>
<path d="M48.1615 33.812H39.07H29.9785V94.4221H48.1615V33.812ZM65.5869 35.3273C73.0874 33.812 80.8152 33.509 88.4673 34.4181L89.2249 34.4939C93.013 34.9485 95.892 38.2062 95.892 41.9944V117.454C95.892 121.469 92.6342 124.651 88.6945 124.651C84.4518 124.651 81.1183 121.015 81.4971 116.772L83.9215 91.0128C84.3003 87.3004 81.8001 83.9669 78.1635 83.285L65.5869 80.7848V35.3273Z" fill="white"/>
<path d="M88.6945 127C86.0428 127 83.4669 125.864 81.6486 123.894C79.8303 121.924 78.9969 119.272 79.2242 116.621L81.6486 90.8612C81.8759 88.3611 80.2091 86.0124 77.7089 85.5578L65.1323 83.0577C63.9201 82.8304 63.0867 81.6182 63.314 80.406C63.5413 79.1938 64.7535 78.3604 65.9657 78.5877L78.5423 81.0878C83.3154 82.0728 86.5731 86.467 86.1186 91.3158L83.6942 117.075C83.5426 118.515 83.9972 119.803 84.9821 120.863C85.967 121.924 87.255 122.454 88.6187 122.454C91.3462 122.454 93.5433 120.257 93.5433 117.53V42.0701C93.5433 39.4184 91.4977 37.1455 88.846 36.7667L88.0884 36.6909C80.8152 35.7818 73.3147 36.0848 66.0415 37.5243C64.8293 37.7516 63.6171 36.994 63.3898 35.706C63.1625 34.4938 63.9201 33.2816 65.2081 33.0543C72.9359 31.5391 80.891 31.236 88.6945 32.1452L89.4521 32.2209C94.3767 32.8271 98.165 36.994 98.165 41.9943V117.454C98.165 122.757 93.9221 127 88.6945 127Z" fill="#2C2524"/>
<path d="M48.1615 31.5392H29.9784C28.6905 31.5392 27.7056 32.5241 27.7056 33.8121V94.4222C27.7056 95.7101 28.6905 96.695 29.9784 96.695C31.2664 96.695 32.2513 95.7101 32.2513 94.4222V36.0849H36.7971V62.6019C36.7971 63.8898 37.782 64.8747 39.07 64.8747C40.3579 64.8747 41.3428 63.8898 41.3428 62.6019V36.0849H45.8886V94.4222C45.8886 95.7101 46.8735 96.695 48.1615 96.695C49.4494 96.695 50.4344 95.7101 50.4344 94.4222V33.8121C50.4344 32.5241 49.4494 31.5392 48.1615 31.5392Z" fill="#2C2524"/>
<path d="M65.2082 74.232H80.3607C81.6487 74.232 82.6336 73.2471 82.6336 71.9592C82.6336 70.6712 81.6487 69.6863 80.3607 69.6863H65.2082C63.9202 69.6863 62.9353 70.6712 62.9353 71.9592C62.9353 73.2471 63.9202 74.232 65.2082 74.232Z" fill="#F9BAB0"/>
<path d="M65.2082 65.1405H80.3607C81.6487 65.1405 82.6336 64.1556 82.6336 62.8676C82.6336 61.5797 81.6487 60.5948 80.3607 60.5948H65.2082C63.9202 60.5948 62.9353 61.5797 62.9353 62.8676C62.9353 64.1556 63.9202 65.1405 65.2082 65.1405Z" fill="#F9BAB0"/>
<path d="M65.2082 56.049H80.3607C81.6487 56.049 82.6336 55.0641 82.6336 53.7761C82.6336 52.4882 81.6487 51.5033 80.3607 51.5033H65.2082C63.9202 51.5033 62.9353 52.4882 62.9353 53.7761C62.9353 55.0641 63.9202 56.049 65.2082 56.049Z" fill="#F9BAB0"/>
<path d="M65.2082 46.9575H80.3607C81.6487 46.9575 82.6336 45.9726 82.6336 44.6846C82.6336 43.3967 81.6487 42.4117 80.3607 42.4117H65.2082C63.9202 42.4117 62.9353 43.3967 62.9353 44.6846C62.9353 45.9726 63.9202 46.9575 65.2082 46.9575Z" fill="#F9BAB0"/>
<path d="M50.889 104.271C46.9494 104.12 43.5401 105.938 41.3429 108.817V80.8606C41.3429 79.6484 40.4338 78.512 39.2216 78.4362C37.9336 78.3604 36.7972 79.4211 36.7972 80.7091V108.741C34.6758 105.862 31.1908 104.044 27.2511 104.195C21.4174 104.423 16.6443 109.196 16.3413 114.954C16.0382 121.469 21.2659 126.849 27.7057 126.849C32.5545 126.849 36.7972 123.742 38.3882 119.424C38.6155 118.742 39.5246 118.742 39.8277 119.424C41.4187 123.742 45.5856 126.849 50.5102 126.849C56.95 126.849 62.1777 121.469 61.8746 114.954C61.4958 109.272 56.7228 104.499 50.889 104.271ZM27.7057 122.454C23.9175 122.454 20.887 119.424 20.887 115.636C20.887 111.848 23.9175 108.817 27.7057 108.817C31.4938 108.817 34.5243 111.848 34.5243 115.636C34.5243 119.424 31.4938 122.454 27.7057 122.454ZM50.4345 122.454C46.6463 122.454 43.6158 119.424 43.6158 115.636C43.6158 111.848 46.6463 108.817 50.4345 108.817C54.2226 108.817 57.2531 111.848 57.2531 115.636C57.2531 119.424 54.2226 122.454 50.4345 122.454Z" fill="#2C2524"/>
<path d="M37.5007 70.352C37.9269 69.9257 38.505 69.6863 39.1078 69.6863C39.7106 69.6863 40.2888 69.9257 40.715 70.352C41.1413 70.7782 41.3807 71.3564 41.3807 71.9592C41.3807 72.562 41.1413 73.1401 40.715 73.5663C40.2888 73.9926 39.7106 74.232 39.1078 74.232C38.505 74.232 37.9269 73.9926 37.5007 73.5663C37.0744 73.1401 36.835 72.562 36.835 71.9592C36.835 71.3564 37.0744 70.7782 37.5007 70.352Z" fill="#FFCA0F"/>
</svg>
