<svg width="100" height="100" viewBox="0 0 100 100" fill="none" xmlns="http://www.w3.org/2000/svg">
<rect width="100" height="100" fill="white"/>
<path fill-rule="evenodd" clip-rule="evenodd" d="M78.1022 40.3114C79.2647 39.6711 80.752 40.0498 81.424 41.1574C84.2759 45.8568 82.8972 50.5734 80.148 53.9325C77.4749 57.1989 73.2289 59.5793 69.3296 59.8936C61.5087 60.5241 56.0301 58.2848 52.4399 54.9785C51.237 53.8706 50.2677 52.6632 49.5 51.4389C48.7323 52.6632 47.763 53.8706 46.5601 54.9785C42.97 58.2848 37.4913 60.5241 29.6704 59.8936C25.7711 59.5793 21.5251 57.1989 18.852 53.9325C16.1029 50.5734 14.7241 45.8568 17.576 41.1574C18.2481 40.0498 19.7353 39.6711 20.8978 40.3114C22.0603 40.9517 22.4579 42.3686 21.7858 43.476C20.1938 46.0994 20.7892 48.7654 22.6869 51.0841C24.6604 53.4957 27.7337 55.0883 30.0804 55.2775C36.6324 55.8057 40.6898 53.9415 43.1804 51.6478C45.7541 49.2776 46.8588 46.2582 47.083 44.2996H51.9171C52.1414 46.2582 53.2461 49.2776 55.8196 51.6478C58.3104 53.9415 62.3676 55.8057 68.9196 55.2775C71.2663 55.0883 74.3395 53.4957 76.3132 51.0841C78.2108 48.7654 78.8062 46.0994 77.2143 43.476C76.5422 42.3686 76.9397 40.9517 78.1022 40.3114Z" fill="#2C2524"/>
<path d="M43.4692 31.4877C36.9861 36.7621 44.7884 44.0268 49.4999 47C54.2116 44.0268 62.0139 36.7621 55.5308 31.4877C54.3675 30.7007 51.6164 30.3139 49.6743 34.8111C49.6079 34.9646 49.3921 34.9646 49.3257 34.8111C47.3836 30.3139 44.6325 30.7007 43.4692 31.4877Z" fill="#2C2524"/>
<path d="M60 57.7152C50.332 76.3419 41.9717 65.4764 39 57.7152C42.048 57.7152 47.4589 51.2385 49.7834 48C51.057 51.5484 57.1251 55.9554 60 57.7152Z" fill="#F97561"/>
<path fill-rule="evenodd" clip-rule="evenodd" d="M50.5152 44L51.79 47.4583C52.0001 48.0284 52.4634 48.7588 53.2021 49.6112C53.9255 50.446 54.8344 51.3083 55.8257 52.1454C57.8111 53.8218 60.0061 55.2956 61.4 56.1264L63 57.0801L62.1299 58.7123C59.5878 63.4812 57.0091 66.6087 54.3751 68.3414C51.6423 70.1392 48.8934 70.3965 46.3871 69.4933C44.0046 68.6349 42.058 66.8087 40.5605 64.8478C39.0443 62.8626 37.8584 60.5701 37.0479 58.5092L36 55.8445H38.8974C39.068 55.8445 39.5863 55.7176 40.4995 55.1159C41.3485 54.5567 42.3064 53.7436 43.2956 52.7807C45.269 50.8594 47.1773 48.5279 48.3213 46.9761L50.5152 44ZM41.6004 59.0183C42.1977 60.2247 42.9152 61.4266 43.7293 62.4926C44.9985 64.1544 46.3775 65.3231 47.7483 65.8169C48.9954 66.2664 50.4278 66.2338 52.1739 65.0851C53.7918 64.0209 55.6809 61.9862 57.7408 58.4637C56.3782 57.564 54.7636 56.4003 53.2458 55.1188C52.1554 54.1982 51.0849 53.1914 50.1865 52.1547C50.0268 51.9704 49.8698 51.7822 49.7172 51.5904C48.6504 52.8804 47.388 54.2953 46.0824 55.5664C45.0013 56.6189 43.8427 57.6199 42.703 58.3707C42.3602 58.5966 41.9902 58.8195 41.6004 59.0183Z" fill="#2C2524"/>
</svg>
